# xmcd
#
# Track frame offsets:
#	150
#	21390
#	35252
#	51070
#	70705
#	81352
#	94480
#	106977
#	127002
#	144252
#	161527
#	183587
#	197580
#	217705
#	231602
#	243307
#
# Disc length: 3394 seconds
#
# Revision: 0
# Processed by: cddbd v1.4PL0 Copyright (c) Steve Scherf et al.
# Submitted via: audiograbber 1.80
#
DISCID=de0d4010
DTITLE=Enrico aruso - Complete Recordings Vol.10
DYEAR=1900
DGENRE=
TTITLE0=Si, pel ciel marmorego giuro
TTITLE1=Serenada de Don Juan
TTITLE2=Amor mio
TTITLE3=Manella mia
TTITLE4=Serenada Espagnole
TTITLE5=Parted
TTITLE6=Trusting eyes
TTITLE7=Flores Purisimas
TTITLE8=E scherzo od e follia
TTITLE9=La riverdra nell'estari
TTITLE10=La Partida
TTITLE11=Brindisi
TTITLE12=Sento una forza indomita
TTITLE13=Hantise d'amour
TTITLE14=La mia Canzone
TTITLE15=Cielo turchino
EXTD=
EXTT0=
EXTT1=
EXTT2=
EXTT3=
EXTT4=
EXTT5=
EXTT6=
EXTT7=
EXTT8=
EXTT9=
EXTT10=
EXTT11=
EXTT12=
EXTT13=
EXTT14=
EXTT15=
PLAYORDER=
